<svg id="Layer_2" data-name="Layer 2" xmlns="http://www.w3.org/2000/svg" viewBox="0 0 2000 1407"><defs><style>.cls-1{fill:#fff;}</style></defs><title>LOGOtransparent</title><path class="cls-1" d="M665.92,394.51a29.16,29.16,0,0,1,6.47,4.93,20,20,0,0,1,3.08,6.49c.41,1.84-.2,3-1.84,3.39,0-.41-4.34,1.75-13,6.48s-21.11,14.32-37.36,28.72-36.12,36.12-59.59,65.14-50.2,67.61-80.24,115.76c-.83,1.24-2.18,1.55-4,.92a20.41,20.41,0,0,1-6.48-4,23.22,23.22,0,0,1-4.65-6.16q-1.53-3.09-.92-4.95,73.46-116.07,120.41-162.37,24.69-39.49,34.57-65.45,17.28-43.83,2.77-78.41t-63.28-35.82q-27.17-.6-68.53,16.67Q381.56,337.1,311.2,447.6,276,504.41,266.14,565.52,255.63,626,279.09,682.22,302.54,739,373,783.48,445.79,828,476.66,881a23,23,0,0,0,3.1,5.55Q555.08,832.25,654.48,789c.82-.39,1.43-.29,1.84.32s.22,1.13-.61,1.53q-99.4,43.23-175.34,97.55,24.69,48.8,4.94,106.2-10.5,28.43-33.33,56.19-38.91,45.67-85.21,74.7-11.13,7.41-33,17t-38.28,7.73q-16.36-1.89-11.42-28.41,3.09-16.07,22.86-46.93,71-109.28,153.72-173.5,4.33-3.69,9.26-7.4a108.35,108.35,0,0,0-7.4-15.44q-24.72-43.2-88.29-81.5Q292,744.58,263.66,677.28q-24.72-60.51-14.2-124.1,10.47-62.34,46.3-120.39,70.39-111.14,184-163,42.59-17.9,70.38-17.29,29,0,51.54,15.44t31.2,43.2q8.64,37.68-8.66,73.48-9.27,23.49-29.62,57.43,30.84-29.64,47.83-39.52t18.23-9.26Q662.51,392.66,665.92,394.51ZM461.85,901.4Q379.1,965.62,308.1,1074.9q-13.59,21-19.13,35.2-6.8,18.54-.62,22.54t18.83-.63a171.42,171.42,0,0,0,25.31-11.73q12.66-7.1,19.46-11.42,45.69-29,84.59-74.09,22.21-27.16,32.72-54.95,15.42-46.92,1.24-85.21C467.6,897.08,464.71,899.36,461.85,901.4Z"/><path class="cls-1" d="M873.86,452.31q0,9.38,5.1,14.07t13.38,4.68q8.26,0,13.51-4.68t5.24-14.07V447.9l23.45-6.07v11a43.84,43.84,0,0,1-3.45,17.79,42.6,42.6,0,0,1-9.24,13.52,38.16,38.16,0,0,1-13.65,8.55,48.72,48.72,0,0,1-17,2.89,46.71,46.71,0,0,1-16.55-2.89,38.42,38.42,0,0,1-13.52-8.55,40.84,40.84,0,0,1-9.1-13.52,45.39,45.39,0,0,1-3.31-17.79V314.68a45.39,45.39,0,0,1,3.31-17.79,40.79,40.79,0,0,1,9.1-13.51A38,38,0,0,1,875,274.83a51.3,51.3,0,0,1,17.65-2.9q19.3,0,30.62,11.45t11.31,31.3v7.17H911.09v-6.62q0-9.37-4.82-14.06t-13.38-4.69q-8.83,0-13.93,4.69t-5.1,14.06Z"/><path class="cls-1" d="M1141.67,275.79v94H1180v-94h25.38v216H1180V394.11h-38.33v97.64h-25.38v-216Z"/><path class="cls-1" d="M1446.16,275.79l37.51,216h-24.55l-5-31.17h-40.26l-4.69,31.17h-24.55l36.41-216Zm-29,163.56h33.64l-17.1-108.12Z"/><path class="cls-1" d="M1750.09,275.79l-40.27,88.26,43.58,127.7h-26.48l-38.61-116.67V491.75h-25.37v-216h25.37v80.26l35.86-80.26Z"/><path class="cls-1" d="M894,606.76q19.86,0,31.31,11.31t11.44,31.44v30.07q0,13-3.86,20.13a23.15,23.15,0,0,1-11.31,10.48A25.34,25.34,0,0,1,934,721q4.39,7.44,4.41,20.68v81.09H913.3V740.81q0-10.2-4-14.48t-15.58-4.28H875V822.72H850.14v-216Zm-19,93.5h17.1q11.31,0,15.59-4.55t4.27-15V652.55q0-21.79-19.86-21.79H875Z"/><path class="cls-1" d="M1177,606.76l37.51,216h-24.55l-5-31.16H1144.7L1140,822.72h-24.55l36.41-216Zm-29,163.56h33.65l-17.1-108.12Z"/><path class="cls-1" d="M1437.6,606.76q19.86,0,31.31,11.31t11.44,31.44v30.07q0,13.23-3.86,20.54a22.73,22.73,0,0,1-11.86,10.62,26,26,0,0,1,13.52,11q4.68,7.72,4.69,22.06v34.48q0,21.51-11.59,33t-31.44,11.44h-46.06v-216Zm-19,93.78h17.66q10.47,0,14.89-4.41t4.41-15.73V652.55q0-10.2-4.69-16t-15.17-5.79h-17.1Zm0,98.19h19.31q19.86,0,19.86-22.07v-33.1q0-11.58-4.42-16.41t-15.44-4.82h-19.31Z"/><path class="cls-1" d="M1753.68,783.28a45.51,45.51,0,0,1-3.45,18.2,40,40,0,0,1-9.52,13.66,40.45,40.45,0,0,1-14.2,8.55,51.06,51.06,0,0,1-17.24,2.89,51.84,51.84,0,0,1-17.51-2.89,39,39,0,0,1-14.07-8.55,41,41,0,0,1-9.38-13.66,45.51,45.51,0,0,1-3.44-18.2V646.2a45.58,45.58,0,0,1,3.44-18.2,39.54,39.54,0,0,1,9.38-13.51,41.71,41.71,0,0,1,14.07-8.55,49.53,49.53,0,0,1,17.51-3,48.8,48.8,0,0,1,17.24,3,43.31,43.31,0,0,1,14.2,8.55,38.68,38.68,0,0,1,9.52,13.51,45.58,45.58,0,0,1,3.45,18.2ZM1690,783q0,9.38,5.38,14.2t13.93,4.83q8.55,0,13.93-4.83t5.38-14.2V646.48q0-9.37-5.38-14.2t-13.93-4.83q-8.55,0-13.93,4.83t-5.38,14.2Z"/><path class="cls-1" d="M894,937.74q19.86,0,31.31,11.3t11.44,31.45v30.06q0,13-3.86,20.13a23.11,23.11,0,0,1-11.31,10.48A25.39,25.39,0,0,1,934,1051.92q4.39,7.44,4.41,20.69v81.08H913.3v-81.91q0-10.2-4-14.48T893.72,1053H875v100.67H850.14v-216Zm-19,93.49h17.1q11.31,0,15.59-4.55t4.27-15V983.52q0-21.78-19.86-21.79H875Z"/><path class="cls-1" d="M1189.93,937.74v24.54h-24.27v191.41h-25.37V962.28H1116V937.74Z"/><path class="cls-1" d="M1386.31,937.74l27.85,83.84,28.41-83.84h24.55l-40.55,115v100.94H1401.2V1052.75l-40.54-115Z"/><path class="cls-1" d="M1654.11,1124.18q7.44,0,11,4.42a17.91,17.91,0,0,1,0,21.51q-3.59,4.41-11,4.41-7.17,0-10.62-4.41a18.49,18.49,0,0,1,0-21.51Q1646.94,1124.19,1654.11,1124.18Z"/></svg>